<svg width="32" height="36" viewBox="0 0 32 36" fill="none" xmlns="http://www.w3.org/2000/svg">
<path d="M26.6184 35.5H5.38158C4.08691 35.5 2.84526 35.0361 1.92978 34.2105C1.01431 33.3848 0.5 32.2649 0.5 31.0973V29.6408C0.5 22.6511 7.45333 16.961 16 16.961C24.5467 16.961 31.5 22.6475 31.5 29.6408V31.0973C31.5 32.2649 30.9857 33.3848 30.0702 34.2105C29.1547 35.0361 27.9131 35.5 26.6184 35.5ZM16 18.7256C8.52923 18.7256 2.45263 23.6214 2.45263 29.6444V31.1008C2.45263 31.8014 2.76122 32.4733 3.3105 32.9687C3.85979 33.4641 4.60478 33.7424 5.38158 33.7424H26.6184C27.3952 33.7424 28.1402 33.4641 28.6895 32.9687C29.2388 32.4733 29.5474 31.8014 29.5474 31.1008V29.6408C29.5474 23.6214 23.4708 18.7256 16 18.7256ZM16 14.3211C14.4845 14.3214 13.0029 13.9164 11.7426 13.1573C10.4823 12.3982 9.49995 11.319 8.91972 10.0563C8.33949 8.7936 8.18748 7.40407 8.48291 6.06344C8.77833 4.72281 9.50792 3.49131 10.5794 2.52467C11.6509 1.55804 13.0162 0.899703 14.5025 0.632916C15.9889 0.366129 17.5296 0.502877 18.9298 1.02587C20.33 1.54886 21.5267 2.4346 22.3687 3.57107C23.2108 4.70754 23.6602 6.04369 23.6602 7.41054C23.6586 9.24259 22.8511 10.9992 21.415 12.2949C19.9788 13.5905 18.0313 14.3192 16 14.3211ZM16 2.26286C14.8706 2.26251 13.7665 2.56427 12.8272 3.12996C11.888 3.69566 11.1559 4.49987 10.7235 5.44088C10.2912 6.38189 10.1779 7.41742 10.3982 8.41647C10.6184 9.41553 11.1622 10.3332 11.9608 11.0535C12.7594 11.7738 13.7769 12.2642 14.8847 12.4629C15.9924 12.6615 17.1405 12.5594 18.1839 12.1694C19.2272 11.7795 20.1189 11.1192 20.7461 10.2721C21.3734 9.42499 21.7079 8.42915 21.7075 7.41054C21.706 6.04572 21.1042 4.7372 20.0341 3.77212C18.9641 2.80705 17.5133 2.26426 16 2.26286Z" fill="#DE938C"/>
</svg>
