<svg width="104" height="19" viewBox="0 0 104 19" fill="none" xmlns="http://www.w3.org/2000/svg">
<path d="M1 4.5L9.16492 10.2154C9.82609 10.6783 10.1567 10.9097 10.5163 10.9993C10.8339 11.0785 11.1661 11.0785 11.4837 10.9993C11.8433 10.9097 12.1739 10.6783 12.8351 10.2154L21 4.5M5.8 17.5H16.2C17.8802 17.5 18.7202 17.5 19.362 17.173C19.9265 16.8854 20.3854 16.4265 20.673 15.862C21 15.2202 21 14.3802 21 12.7V6.3C21 4.61984 21 3.77976 20.673 3.13803C20.3854 2.57354 19.9265 2.1146 19.362 1.82698C18.7202 1.5 17.8802 1.5 16.2 1.5H5.8C4.11984 1.5 3.27976 1.5 2.63803 1.82698C2.07354 2.1146 1.6146 2.57354 1.32698 3.13803C1 3.77976 1 4.61984 1 6.3V12.7C1 14.3802 1 15.2202 1.32698 15.862C1.6146 16.4265 2.07354 16.8854 2.63803 17.173C3.27976 17.5 4.11984 17.5 5.8 17.5Z" stroke="#DE938C" stroke-linecap="round" stroke-linejoin="round"/>
<path d="M41.4609 16H39.9141V5.74219H34.1094V16H32.5625V4.36719H41.4609V16ZM51.9141 11.6406C51.9141 13.0625 51.5495 14.1849 50.8203 15.0078C50.0911 15.8307 49.1146 16.2422 47.8906 16.2422C46.6562 16.2422 45.6745 15.8307 44.9453 15.0078C44.2214 14.1849 43.8594 13.0625 43.8594 11.6406C43.8594 10.2188 44.2214 9.09635 44.9453 8.27344C45.6745 7.44531 46.6562 7.03125 47.8906 7.03125C49.1146 7.03125 50.0911 7.44531 50.8203 8.27344C51.5495 9.09635 51.9141 10.2188 51.9141 11.6406ZM50.3984 11.6406C50.3984 10.5104 50.1771 9.67188 49.7344 9.125C49.2917 8.57292 48.6771 8.29688 47.8906 8.29688C47.0938 8.29688 46.474 8.57292 46.0312 9.125C45.5938 9.67188 45.375 10.5104 45.375 11.6406C45.375 12.7344 45.5964 13.5651 46.0391 14.1328C46.4818 14.6953 47.099 14.9766 47.8906 14.9766C48.6719 14.9766 49.2839 14.6979 49.7266 14.1406C50.1745 13.5781 50.3984 12.7448 50.3984 11.6406ZM60.9922 16H59.5234V12.6484C59.0495 12.7943 58.5964 12.9115 58.1641 13C57.7318 13.0885 57.2604 13.1328 56.75 13.1328C55.8125 13.1328 55.0964 12.9036 54.6016 12.4453C54.1068 11.9818 53.8594 11.3151 53.8594 10.4453V7.27344H55.3281V9.69531C55.3281 10.0286 55.349 10.3281 55.3906 10.5938C55.4323 10.8542 55.5208 11.0807 55.6562 11.2734C55.7917 11.4609 55.9818 11.6042 56.2266 11.7031C56.4714 11.8021 56.8125 11.8516 57.25 11.8516C57.6094 11.8516 58 11.8177 58.4219 11.75C58.8438 11.6771 59.2109 11.5938 59.5234 11.5V7.27344H60.9922V16ZM70.2969 8.5625H67.1406V16H65.6719V8.5625H62.5156V7.27344H70.2969V8.5625ZM78.6016 16H77.1406V15.0703C77.0104 15.1589 76.8333 15.2839 76.6094 15.4453C76.3906 15.6016 76.1771 15.7266 75.9688 15.8203C75.724 15.9401 75.4427 16.0391 75.125 16.1172C74.8073 16.2005 74.4349 16.2422 74.0078 16.2422C73.2214 16.2422 72.5547 15.9818 72.0078 15.4609C71.4609 14.9401 71.1875 14.276 71.1875 13.4688C71.1875 12.8073 71.3281 12.2734 71.6094 11.8672C71.8958 11.4557 72.3021 11.1328 72.8281 10.8984C73.3594 10.6641 73.9974 10.5052 74.7422 10.4219C75.487 10.3385 76.2865 10.276 77.1406 10.2344V10.0078C77.1406 9.67448 77.0807 9.39844 76.9609 9.17969C76.8464 8.96094 76.6797 8.78906 76.4609 8.66406C76.2526 8.54427 76.0026 8.46354 75.7109 8.42188C75.4193 8.38021 75.1146 8.35938 74.7969 8.35938C74.4115 8.35938 73.9818 8.41146 73.5078 8.51562C73.0339 8.61458 72.5443 8.76042 72.0391 8.95312H71.9609V7.46094C72.2474 7.38281 72.6615 7.29688 73.2031 7.20312C73.7448 7.10938 74.2786 7.0625 74.8047 7.0625C75.4193 7.0625 75.9531 7.11458 76.4062 7.21875C76.8646 7.31771 77.2604 7.48958 77.5938 7.73438C77.9219 7.97396 78.1719 8.28385 78.3438 8.66406C78.5156 9.04427 78.6016 9.51562 78.6016 10.0781V16ZM77.1406 13.8516V11.4219C76.6927 11.4479 76.1641 11.487 75.5547 11.5391C74.9505 11.5911 74.4714 11.6667 74.1172 11.7656C73.6953 11.8854 73.3542 12.0729 73.0938 12.3281C72.8333 12.5781 72.7031 12.9245 72.7031 13.3672C72.7031 13.8672 72.8542 14.2448 73.1562 14.5C73.4583 14.75 73.9193 14.875 74.5391 14.875C75.0547 14.875 75.526 14.776 75.9531 14.5781C76.3802 14.375 76.776 14.1328 77.1406 13.8516Z" fill="#DE938C"/>
<path d="M92.8861 11.7825C92.9285 11.634 92.9497 11.5598 92.9816 11.4905C93.0098 11.429 93.0442 11.3705 93.0842 11.316C93.1293 11.2546 93.1839 11.1999 93.2932 11.0907L99.75 4.63389C100.44 3.94353 101.56 3.94352 102.25 4.63386C102.94 5.32423 102.94 6.44356 102.25 7.13393L95.7932 13.5907C95.6839 13.6999 95.6293 13.7546 95.5679 13.7997C95.5134 13.8397 95.4549 13.8741 95.3934 13.9023C95.3241 13.9341 95.2499 13.9554 95.1014 13.9978L92 14.8839L92.8861 11.7825Z" stroke="#DE938C" stroke-linecap="round" stroke-linejoin="round"/>
</svg>
