<svg width="38" height="34" viewBox="0 0 38 34" fill="none" xmlns="http://www.w3.org/2000/svg">
<path d="M3.71256 2.28063C5.60224 0.693969 7.98123 -0.112808 10.4001 0.0127236C12.8189 0.138255 15.1102 1.1874 16.8409 2.96195L19.0013 5.17623L21.1561 2.96494C22.8866 1.18915 25.1782 0.138946 27.5977 0.0128575C30.0172 -0.113231 32.397 0.693527 34.2872 2.28063C38.8992 6.15239 39.2719 13.367 35.0832 17.7358L19.84 33.6372C19.6173 33.8695 19.3157 34 19.0013 34C18.687 34 18.3854 33.8695 18.1626 33.6372L2.9176 17.7348C-1.27117 13.366 -0.900312 6.15339 3.71256 2.28063ZM15.1777 4.74095C13.8622 3.39204 12.1207 2.59452 10.2821 2.49909C8.44347 2.40365 6.63517 3.01691 5.19884 4.22299C1.69378 7.1664 1.41136 12.6498 4.59501 15.9717L19.0004 30.9986L33.4048 15.9707C36.5885 12.6498 36.3051 7.1664 32.8 4.22398C31.3632 3.01782 29.5544 2.4047 27.7155 2.50051C25.8765 2.59631 24.1347 3.39439 22.8192 4.74394L19.8324 7.80887C19.6102 8.037 19.3115 8.16479 19.0004 8.16479C18.6893 8.16479 18.3905 8.037 18.1683 7.80887L15.1777 4.74095Z" fill="#DE938C"/>
</svg>
