<svg width="34" height="34" viewBox="0 0 34 34" fill="none" xmlns="http://www.w3.org/2000/svg">
<path d="M3.82353 6.97059C5.38292 6.97059 6.64706 5.74596 6.64706 4.23529C6.64706 2.72463 5.38292 1.5 3.82353 1.5C2.26414 1.5 1 2.72463 1 4.23529C1 5.74596 2.26414 6.97059 3.82353 6.97059Z" stroke="#DE938C" stroke-width="2" stroke-linecap="round"/>
<path d="M3.82353 19.7353C5.38292 19.7353 6.64706 18.5107 6.64706 17C6.64706 15.4893 5.38292 14.2647 3.82353 14.2647C2.26414 14.2647 1 15.4893 1 17C1 18.5107 2.26414 19.7353 3.82353 19.7353Z" stroke="#DE938C" stroke-width="2" stroke-linecap="round"/>
<path d="M3.82353 32.5C5.38292 32.5 6.64706 31.2754 6.64706 29.7647C6.64706 28.254 5.38292 27.0294 3.82353 27.0294C2.26414 27.0294 1 28.254 1 29.7647C1 31.2754 2.26414 32.5 3.82353 32.5Z" stroke="#DE938C" stroke-width="2" stroke-linecap="round"/>
<path d="M30.1765 1.5H15.1176C13.5583 1.5 12.2941 2.72463 12.2941 4.23529C12.2941 5.74596 13.5583 6.97059 15.1176 6.97059H30.1765C31.7359 6.97059 33 5.74596 33 4.23529C33 2.72463 31.7359 1.5 30.1765 1.5Z" stroke="#DE938C" stroke-width="2" stroke-linecap="round"/>
<path d="M30.1765 14.2647H15.1176C13.5583 14.2647 12.2941 15.4893 12.2941 17C12.2941 18.5107 13.5583 19.7353 15.1176 19.7353H30.1765C31.7359 19.7353 33 18.5107 33 17C33 15.4893 31.7359 14.2647 30.1765 14.2647Z" stroke="#DE938C" stroke-width="2" stroke-linecap="round"/>
<path d="M30.1765 27.0294H15.1176C13.5583 27.0294 12.2941 28.254 12.2941 29.7647C12.2941 31.2754 13.5583 32.5 15.1176 32.5H30.1765C31.7359 32.5 33 31.2754 33 29.7647C33 28.254 31.7359 27.0294 30.1765 27.0294Z" stroke="#DE938C" stroke-width="2" stroke-linecap="round"/>
</svg>
