<svg width="92" height="22" viewBox="0 0 92 22" fill="none" xmlns="http://www.w3.org/2000/svg">
<path d="M11 14.3333C7.2068 14.3333 3.83354 16.034 1.68595 18.6733C1.22373 19.2413 0.99262 19.5254 1.00018 19.9092C1.00602 20.2058 1.20657 20.5799 1.45785 20.763C1.7831 21 2.23383 21 3.13527 21H18.8647C19.7662 21 20.2169 21 20.5421 20.763C20.7934 20.5799 20.994 20.2058 20.9998 19.9092C21.0074 19.5254 20.7763 19.2413 20.314 18.6733C18.1665 16.034 14.7932 14.3333 11 14.3333Z" stroke="#DE938C" stroke-linecap="round" stroke-linejoin="round"/>
<path d="M11 11C13.9738 11 16.3845 8.76142 16.3845 6C16.3845 3.23858 13.9738 1 11 1C8.02621 1 5.61547 3.23858 5.61547 6C5.61547 8.76142 8.02621 11 11 11Z" stroke="#DE938C" stroke-linecap="round" stroke-linejoin="round"/>
<path d="M43.2812 11.6016C43.2812 12.3307 43.1641 12.9792 42.9297 13.5469C42.7005 14.1094 42.3802 14.5807 41.9688 14.9609C41.526 15.3724 40.987 15.7005 40.3516 15.9453C39.7161 16.1849 39.0391 16.3125 38.3203 16.3281V17.625H36.7812V16.3281C36.0833 16.3125 35.4141 16.1875 34.7734 15.9531C34.1328 15.7188 33.5859 15.388 33.1328 14.9609C32.7214 14.5755 32.3984 14.1016 32.1641 13.5391C31.9349 12.9766 31.8203 12.3307 31.8203 11.6016C31.8203 10.8932 31.9323 10.2734 32.1562 9.74219C32.3802 9.21094 32.6901 8.7474 33.0859 8.35156C33.5078 7.92969 34.0339 7.59635 34.6641 7.35156C35.2995 7.10677 36.0052 6.97396 36.7812 6.95312V5.74219H38.3203V6.95312C39.0911 6.96875 39.7969 7.10417 40.4375 7.35938C41.0781 7.61458 41.6042 7.94531 42.0156 8.35156C42.4062 8.73177 42.7135 9.19271 42.9375 9.73438C43.1667 10.276 43.2812 10.8984 43.2812 11.6016ZM41.6719 11.5391C41.6719 11.0234 41.5885 10.5495 41.4219 10.1172C41.2552 9.6849 41.0182 9.32031 40.7109 9.02344C40.4089 8.73177 40.0729 8.51823 39.7031 8.38281C39.3333 8.2474 38.8724 8.17448 38.3203 8.16406V15.1172C38.8099 15.1068 39.2552 15.0286 39.6562 14.8828C40.0573 14.7318 40.388 14.5339 40.6484 14.2891C40.987 13.9766 41.2422 13.5938 41.4141 13.1406C41.5859 12.6875 41.6719 12.1536 41.6719 11.5391ZM36.7812 15.1172V8.16406C36.2292 8.16927 35.7682 8.24219 35.3984 8.38281C35.0286 8.52344 34.6927 8.73698 34.3906 9.02344C34.0885 9.3099 33.8516 9.67448 33.6797 10.1172C33.513 10.5599 33.4297 11.0339 33.4297 11.5391C33.4297 12.1224 33.5156 12.651 33.6875 13.125C33.8646 13.599 34.1198 13.987 34.4531 14.2891C34.7083 14.5234 35.0365 14.7188 35.4375 14.875C35.8438 15.0312 36.2917 15.112 36.7812 15.1172ZM54.5547 17.5H53.0156V8.17969L47.2344 17.5H45.6719V5.86719H47.2109V15.0469L52.9219 5.86719H54.5547V17.5ZM66.3594 7.20312C66.8333 7.72396 67.1953 8.36198 67.4453 9.11719C67.7005 9.8724 67.8281 10.7292 67.8281 11.6875C67.8281 12.6458 67.6979 13.5052 67.4375 14.2656C67.1823 15.0208 66.8229 15.651 66.3594 16.1562C65.8802 16.6823 65.3125 17.0781 64.6562 17.3438C64.0052 17.6094 63.2604 17.7422 62.4219 17.7422C61.6042 17.7422 60.8594 17.6068 60.1875 17.3359C59.5208 17.0651 58.9531 16.6719 58.4844 16.1562C58.0156 15.6406 57.6536 15.0078 57.3984 14.2578C57.1484 13.5078 57.0234 12.651 57.0234 11.6875C57.0234 10.7396 57.1484 9.89062 57.3984 9.14062C57.6484 8.38542 58.013 7.73958 58.4922 7.20312C58.9505 6.69271 59.5182 6.30208 60.1953 6.03125C60.8776 5.76042 61.6198 5.625 62.4219 5.625C63.2552 5.625 64.0026 5.76302 64.6641 6.03906C65.3307 6.3099 65.8958 6.69792 66.3594 7.20312ZM66.2188 11.6875C66.2188 10.1771 65.8802 9.01302 65.2031 8.19531C64.526 7.3724 63.6016 6.96094 62.4297 6.96094C61.2474 6.96094 60.3177 7.3724 59.6406 8.19531C58.9688 9.01302 58.6328 10.1771 58.6328 11.6875C58.6328 13.2135 58.9766 14.3828 59.6641 15.1953C60.3516 16.0026 61.2734 16.4062 62.4297 16.4062C63.5859 16.4062 64.5052 16.0026 65.1875 15.1953C65.875 14.3828 66.2188 13.2135 66.2188 11.6875Z" fill="#DE938C"/>
<path d="M80.8861 13.2825C80.9285 13.134 80.9497 13.0598 80.9816 12.9905C81.0098 12.929 81.0442 12.8705 81.0842 12.816C81.1293 12.7546 81.1839 12.6999 81.2932 12.5907L87.75 6.13389C88.4404 5.44353 89.5597 5.44352 90.25 6.13386C90.9404 6.82423 90.9404 7.94356 90.25 8.63393L83.7932 15.0907C83.6839 15.1999 83.6293 15.2546 83.5679 15.2997C83.5134 15.3397 83.4549 15.3741 83.3934 15.4023C83.3241 15.4341 83.2499 15.4554 83.1014 15.4978L80 16.3839L80.8861 13.2825Z" stroke="#DE938C" stroke-linecap="round" stroke-linejoin="round"/>
</svg>
