<svg width="180" height="22" viewBox="0 0 180 22" fill="none" xmlns="http://www.w3.org/2000/svg">
<path d="M2.25 7.57139H19.75M4.51191 1V2.71449M17.25 1V2.71428M21 5.71428V18C21 19.6569 19.5076 21 17.6667 21H4.33333C2.49238 21 1 19.6569 1 18V5.71428C1 4.05742 2.49238 2.71428 4.33333 2.71428H17.6667C19.5076 2.71428 21 4.05742 21 5.71428Z" stroke="#DE938C" stroke-linecap="round" stroke-linejoin="round"/>
<path d="M42.2344 19.6328H40.7656V16.9688H32.5469V19.6328H31.0781V15.625H32.0156C32.6927 14.5104 33.2318 13.0573 33.6328 11.2656C34.0391 9.46875 34.2422 7.5026 34.2422 5.36719H41.1328V15.625H42.2344V19.6328ZM39.5859 15.625V6.71094H35.6953C35.6224 8.57031 35.3932 10.2734 35.0078 11.8203C34.6224 13.362 34.1224 14.6302 33.5078 15.625H39.5859ZM51.1641 17H49.7031V16.0703C49.5729 16.1589 49.3958 16.2839 49.1719 16.4453C48.9531 16.6016 48.7396 16.7266 48.5312 16.8203C48.2865 16.9401 48.0052 17.0391 47.6875 17.1172C47.3698 17.2005 46.9974 17.2422 46.5703 17.2422C45.7839 17.2422 45.1172 16.9818 44.5703 16.4609C44.0234 15.9401 43.75 15.276 43.75 14.4688C43.75 13.8073 43.8906 13.2734 44.1719 12.8672C44.4583 12.4557 44.8646 12.1328 45.3906 11.8984C45.9219 11.6641 46.5599 11.5052 47.3047 11.4219C48.0495 11.3385 48.849 11.276 49.7031 11.2344V11.0078C49.7031 10.6745 49.6432 10.3984 49.5234 10.1797C49.4089 9.96094 49.2422 9.78906 49.0234 9.66406C48.8151 9.54427 48.5651 9.46354 48.2734 9.42188C47.9818 9.38021 47.6771 9.35938 47.3594 9.35938C46.974 9.35938 46.5443 9.41146 46.0703 9.51562C45.5964 9.61458 45.1068 9.76042 44.6016 9.95312H44.5234V8.46094C44.8099 8.38281 45.224 8.29688 45.7656 8.20312C46.3073 8.10938 46.8411 8.0625 47.3672 8.0625C47.9818 8.0625 48.5156 8.11458 48.9688 8.21875C49.4271 8.31771 49.8229 8.48958 50.1562 8.73438C50.4844 8.97396 50.7344 9.28385 50.9062 9.66406C51.0781 10.0443 51.1641 10.5156 51.1641 11.0781V17ZM49.7031 14.8516V12.4219C49.2552 12.4479 48.7266 12.487 48.1172 12.5391C47.513 12.5911 47.0339 12.6667 46.6797 12.7656C46.2578 12.8854 45.9167 13.0729 45.6562 13.3281C45.3958 13.5781 45.2656 13.9245 45.2656 14.3672C45.2656 14.8672 45.4167 15.2448 45.7188 15.5C46.0208 15.75 46.4818 15.875 47.1016 15.875C47.6172 15.875 48.0885 15.776 48.5156 15.5781C48.9427 15.375 49.3385 15.1328 49.7031 14.8516ZM60.4062 9.5625H57.25V17H55.7812V9.5625H52.625V8.27344H60.4062V9.5625ZM68.7109 17H67.25V16.0703C67.1198 16.1589 66.9427 16.2839 66.7188 16.4453C66.5 16.6016 66.2865 16.7266 66.0781 16.8203C65.8333 16.9401 65.5521 17.0391 65.2344 17.1172C64.9167 17.2005 64.5443 17.2422 64.1172 17.2422C63.3307 17.2422 62.6641 16.9818 62.1172 16.4609C61.5703 15.9401 61.2969 15.276 61.2969 14.4688C61.2969 13.8073 61.4375 13.2734 61.7188 12.8672C62.0052 12.4557 62.4115 12.1328 62.9375 11.8984C63.4688 11.6641 64.1068 11.5052 64.8516 11.4219C65.5964 11.3385 66.3958 11.276 67.25 11.2344V11.0078C67.25 10.6745 67.1901 10.3984 67.0703 10.1797C66.9557 9.96094 66.7891 9.78906 66.5703 9.66406C66.362 9.54427 66.112 9.46354 65.8203 9.42188C65.5286 9.38021 65.224 9.35938 64.9062 9.35938C64.5208 9.35938 64.0911 9.41146 63.6172 9.51562C63.1432 9.61458 62.6536 9.76042 62.1484 9.95312H62.0703V8.46094C62.3568 8.38281 62.7708 8.29688 63.3125 8.20312C63.8542 8.10938 64.388 8.0625 64.9141 8.0625C65.5286 8.0625 66.0625 8.11458 66.5156 8.21875C66.974 8.31771 67.3698 8.48958 67.7031 8.73438C68.0312 8.97396 68.2812 9.28385 68.4531 9.66406C68.625 10.0443 68.7109 10.5156 68.7109 11.0781V17ZM67.25 14.8516V12.4219C66.8021 12.4479 66.2734 12.487 65.6641 12.5391C65.0599 12.5911 64.5807 12.6667 64.2266 12.7656C63.8047 12.8854 63.4635 13.0729 63.2031 13.3281C62.9427 13.5781 62.8125 13.9245 62.8125 14.3672C62.8125 14.8672 62.9635 15.2448 63.2656 15.5C63.5677 15.75 64.0286 15.875 64.6484 15.875C65.1641 15.875 65.6354 15.776 66.0625 15.5781C66.4896 15.375 66.8854 15.1328 67.25 14.8516ZM84.8438 12.5312C84.8438 13.2396 84.7422 13.888 84.5391 14.4766C84.3359 15.0599 84.0495 15.5547 83.6797 15.9609C83.3359 16.3464 82.9297 16.6458 82.4609 16.8594C81.9974 17.0677 81.5052 17.1719 80.9844 17.1719C80.5312 17.1719 80.1198 17.1224 79.75 17.0234C79.3854 16.9245 79.013 16.7708 78.6328 16.5625V20.2188H77.1641V8.27344H78.6328V9.1875C79.0234 8.85938 79.4609 8.58594 79.9453 8.36719C80.4349 8.14323 80.9557 8.03125 81.5078 8.03125C82.5599 8.03125 83.3776 8.42969 83.9609 9.22656C84.5495 10.0182 84.8438 11.1198 84.8438 12.5312ZM83.3281 12.5703C83.3281 11.5182 83.1484 10.7318 82.7891 10.2109C82.4297 9.6901 81.8776 9.42969 81.1328 9.42969C80.7109 9.42969 80.2865 9.52083 79.8594 9.70312C79.4323 9.88542 79.0234 10.125 78.6328 10.4219V15.3672C79.0495 15.5547 79.4062 15.6823 79.7031 15.75C80.0052 15.8177 80.3464 15.8516 80.7266 15.8516C81.5443 15.8516 82.1823 15.5755 82.6406 15.0234C83.099 14.4714 83.3281 13.6536 83.3281 12.5703ZM94.5703 12.6406C94.5703 14.0625 94.2057 15.1849 93.4766 16.0078C92.7474 16.8307 91.7708 17.2422 90.5469 17.2422C89.3125 17.2422 88.3307 16.8307 87.6016 16.0078C86.8776 15.1849 86.5156 14.0625 86.5156 12.6406C86.5156 11.2188 86.8776 10.0964 87.6016 9.27344C88.3307 8.44531 89.3125 8.03125 90.5469 8.03125C91.7708 8.03125 92.7474 8.44531 93.4766 9.27344C94.2057 10.0964 94.5703 11.2188 94.5703 12.6406ZM93.0547 12.6406C93.0547 11.5104 92.8333 10.6719 92.3906 10.125C91.9479 9.57292 91.3333 9.29688 90.5469 9.29688C89.75 9.29688 89.1302 9.57292 88.6875 10.125C88.25 10.6719 88.0312 11.5104 88.0312 12.6406C88.0312 13.7344 88.2526 14.5651 88.6953 15.1328C89.138 15.6953 89.7552 15.9766 90.5469 15.9766C91.3281 15.9766 91.9401 15.6979 92.3828 15.1406C92.8307 14.5781 93.0547 13.7448 93.0547 12.6406ZM107.797 17H106.023L103.227 13.0156H102.516V17H101.062V13.0156H100.43L97.5078 17H95.8125L99.1797 12.4297C98.9245 12.2943 98.6979 12.1016 98.5 11.8516C98.3073 11.6016 98.1302 11.224 97.9688 10.7188C97.8281 10.276 97.6615 9.96875 97.4688 9.79688C97.276 9.625 96.9609 9.53906 96.5234 9.53906H96.1094V8.27344H96.6484C97.2943 8.27344 97.8125 8.40365 98.2031 8.66406C98.5938 8.92448 98.9062 9.38021 99.1406 10.0312C99.1875 10.1667 99.2448 10.3229 99.3125 10.5C99.3854 10.6719 99.4479 10.8177 99.5 10.9375C99.6719 11.3333 99.8906 11.6146 100.156 11.7812C100.427 11.9427 100.729 12.0339 101.062 12.0547V8.27344H102.516V12.0547C102.849 12.0339 103.151 11.9401 103.422 11.7734C103.698 11.6068 103.922 11.3281 104.094 10.9375C104.151 10.8073 104.214 10.6562 104.281 10.4844C104.354 10.3125 104.411 10.1615 104.453 10.0312C104.682 9.39062 104.99 8.9375 105.375 8.67188C105.76 8.40625 106.279 8.27344 106.93 8.27344H107.469V9.53906H107.055C106.612 9.53906 106.292 9.63021 106.094 9.8125C105.901 9.99479 105.74 10.2969 105.609 10.7188C105.464 11.1823 105.289 11.5443 105.086 11.8047C104.888 12.0599 104.672 12.2526 104.438 12.3828L107.797 17ZM117.539 19.0938H116.172V16.9766H109.609V19.0938H108.242V15.75H109.188C109.797 14.7448 110.25 13.5859 110.547 12.2734C110.849 10.9557 111 9.6224 111 8.27344H116.484V15.75H117.539V19.0938ZM115.016 15.75V9.50781H112.383C112.315 10.8151 112.115 12.0078 111.781 13.0859C111.448 14.1641 111.065 15.0521 110.633 15.75H115.016ZM126.875 12.7891H120.445C120.445 13.3255 120.526 13.7943 120.688 14.1953C120.849 14.5911 121.07 14.9167 121.352 15.1719C121.622 15.4219 121.943 15.6094 122.312 15.7344C122.688 15.8594 123.099 15.9219 123.547 15.9219C124.141 15.9219 124.737 15.8047 125.336 15.5703C125.94 15.3307 126.37 15.0964 126.625 14.8672H126.703V16.4688C126.208 16.6771 125.703 16.8516 125.188 16.9922C124.672 17.1328 124.13 17.2031 123.562 17.2031C122.115 17.2031 120.984 16.8125 120.172 16.0312C119.359 15.2448 118.953 14.1302 118.953 12.6875C118.953 11.2604 119.341 10.1276 120.117 9.28906C120.898 8.45052 121.924 8.03125 123.195 8.03125C124.372 8.03125 125.279 8.375 125.914 9.0625C126.555 9.75 126.875 10.7266 126.875 11.9922V12.7891ZM125.445 11.6641C125.44 10.8932 125.245 10.2969 124.859 9.875C124.479 9.45312 123.898 9.24219 123.117 9.24219C122.331 9.24219 121.703 9.47396 121.234 9.9375C120.771 10.401 120.508 10.9766 120.445 11.6641H125.445ZM136.406 17H134.938V13.0703H130.57V17H129.102V8.27344H130.57V11.8047H134.938V8.27344H136.406V17ZM146.656 17H145.203V10.4453L140.633 17H139.305V8.27344H140.758V14.7344L145.281 8.27344H146.656V17ZM156.258 17H154.789V13.5391H153.062L150.359 17H148.633L151.57 13.3984C150.815 13.1901 150.263 12.8724 149.914 12.4453C149.565 12.013 149.391 11.4479 149.391 10.75C149.391 10.2865 149.495 9.89323 149.703 9.57031C149.911 9.2474 150.174 8.98438 150.492 8.78125C150.805 8.58333 151.164 8.45052 151.57 8.38281C151.977 8.3099 152.419 8.27344 152.898 8.27344H156.258V17ZM154.789 12.3828V9.44531H152.938C152.536 9.44531 152.247 9.45833 152.07 9.48438C151.893 9.51042 151.701 9.58073 151.492 9.69531C151.289 9.8099 151.138 9.96615 151.039 10.1641C150.945 10.3568 150.898 10.5677 150.898 10.7969C150.898 11.0833 150.927 11.3151 150.984 11.4922C151.047 11.6693 151.172 11.8359 151.359 11.9922C151.552 12.1432 151.786 12.2474 152.062 12.3047C152.339 12.3568 152.646 12.3828 152.984 12.3828H154.789Z" fill="#DE938C"/>
<path d="M168.886 13.2825C168.929 13.134 168.95 13.0598 168.982 12.9905C169.01 12.929 169.044 12.8705 169.084 12.816C169.129 12.7546 169.184 12.6999 169.293 12.5907L175.75 6.13388C176.44 5.44353 177.56 5.44352 178.25 6.13386C178.94 6.82423 178.94 7.94356 178.25 8.63393L171.793 15.0907C171.684 15.1999 171.629 15.2546 171.568 15.2997C171.513 15.3397 171.455 15.3741 171.393 15.4023C171.324 15.4341 171.25 15.4554 171.101 15.4978L168 16.3839L168.886 13.2825Z" stroke="#DE938C" stroke-linecap="round" stroke-linejoin="round"/>
</svg>
