<svg width="185" height="21" viewBox="0 0 185 21" fill="none" xmlns="http://www.w3.org/2000/svg">
<path d="M17.9846 14.2923H3.95385C2.32248 14.2923 1 15.6148 1 17.2462M17.9846 14.2923V18.7231C17.9846 19.5388 17.3234 20.2 16.5077 20.2H3.95385C2.32248 20.2 1 18.8775 1 17.2462M17.9846 14.2923V2.47692C17.9846 1.66124 17.3234 1 16.5077 1H5.8H3.95385C2.32248 1 1 2.32248 1 3.95385V17.2462" stroke="#DE938C" stroke-linecap="round" stroke-linejoin="round"/>
<path d="M38.1721 17.1H36.6252V6.84219H32.4221C32.4065 7.43074 32.3831 8.00886 32.3518 8.57657C32.3258 9.13907 32.3049 9.64167 32.2893 10.0844C32.2476 11.199 32.1773 12.1156 32.0784 12.8344C31.9846 13.5531 31.8622 14.1443 31.7112 14.6078C31.5601 15.0766 31.3883 15.4516 31.1956 15.7328C31.0081 16.0089 30.7919 16.2589 30.5471 16.4828C30.2971 16.712 30.0393 16.876 29.7737 16.975C29.5133 17.074 29.206 17.1234 28.8518 17.1234C28.7424 17.1234 28.6096 17.1182 28.4534 17.1078C28.2971 17.1026 28.1877 17.1 28.1252 17.1V15.6H28.2346C28.2867 15.6052 28.3518 15.6104 28.4299 15.6156C28.5081 15.6208 28.5862 15.6234 28.6643 15.6234C28.8518 15.6234 29.0289 15.5948 29.1956 15.5375C29.3622 15.4802 29.5028 15.3917 29.6174 15.2719C29.9872 14.9021 30.2581 14.2927 30.4299 13.4438C30.607 12.5948 30.732 11.3865 30.8049 9.81876C30.831 9.30834 30.857 8.63126 30.8831 7.78751C30.9143 6.94376 30.9403 6.17032 30.9612 5.46719H38.1721V17.1ZM50.8127 12.7406C50.8127 11.6208 50.5966 10.7849 50.1643 10.2328C49.732 9.67553 49.1331 9.39688 48.3674 9.39688C47.5706 9.39688 46.9612 9.68855 46.5393 10.2719C46.1226 10.85 45.9143 11.6729 45.9143 12.7406C45.9143 13.8448 46.1331 14.6781 46.5706 15.2406C47.0081 15.7979 47.607 16.0766 48.3674 16.0766C49.1278 16.0766 49.7242 15.8005 50.1565 15.2484C50.594 14.6912 50.8127 13.8552 50.8127 12.7406ZM44.4612 13.1469H42.6487V17.1H41.1799V8.37344H42.6487V11.9125H44.5002C44.6305 10.7094 45.0497 9.77969 45.7581 9.12344C46.4716 8.46199 47.3466 8.13126 48.3831 8.13126C49.5862 8.13126 50.5445 8.54271 51.2581 9.36563C51.9716 10.1885 52.3284 11.3135 52.3284 12.7406C52.3284 14.1521 51.9768 15.2719 51.2737 16.1C50.5706 16.9281 49.607 17.3422 48.3831 17.3422C47.2268 17.3422 46.2997 16.9672 45.6018 16.2172C44.9091 15.4672 44.5289 14.4438 44.4612 13.1469ZM61.0159 9.66251C61.3805 10.0271 61.6565 10.4698 61.844 10.9906C62.0315 11.5063 62.1252 12.113 62.1252 12.8109C62.1252 14.113 61.7346 15.1938 60.9534 16.0531C60.1721 16.9125 59.2112 17.3422 58.0706 17.3422C57.5081 17.3422 56.9898 17.2484 56.5159 17.0609C56.0419 16.8682 55.6383 16.574 55.3049 16.1781C54.8883 15.6833 54.5758 15.0609 54.3674 14.3109C54.1643 13.5557 54.0627 12.6365 54.0627 11.5531C54.0627 11.1625 54.081 10.7667 54.1174 10.3656C54.1539 9.95938 54.2372 9.47501 54.3674 8.91251C54.4716 8.42813 54.6226 7.96199 54.8206 7.51407C55.0237 7.06615 55.2633 6.70417 55.5393 6.42813C55.9143 6.04792 56.4065 5.74324 57.0159 5.51407C57.6305 5.27969 58.443 5.11824 59.4534 5.02969C59.8648 4.99324 60.2476 4.96459 60.6018 4.94376C60.956 4.91771 61.2737 4.89428 61.5549 4.87344V6.22501C61.2112 6.24584 60.87 6.26667 60.5315 6.28751C60.1982 6.30834 59.8648 6.33438 59.5315 6.36563C58.8648 6.42292 58.2607 6.5323 57.719 6.69376C57.1825 6.85521 56.7893 7.06355 56.5393 7.31876C56.2633 7.5948 56.0549 7.95678 55.9143 8.40469C55.7789 8.8474 55.6903 9.26928 55.6487 9.67032C56.0393 9.38907 56.4664 9.15469 56.9299 8.96719C57.3987 8.77449 57.8961 8.67813 58.4221 8.67813C58.9117 8.67813 59.3831 8.75886 59.8362 8.92032C60.2893 9.08178 60.6825 9.32917 61.0159 9.66251ZM60.6331 12.8969C60.6331 11.9333 60.4013 11.2146 59.9377 10.7406C59.4742 10.2615 58.8622 10.0219 58.1018 10.0219C57.6487 10.0219 57.2138 10.0948 56.7971 10.2406C56.3805 10.3813 55.9846 10.5714 55.6096 10.8109C55.5992 10.9412 55.5888 11.0948 55.5784 11.2719C55.5732 11.4438 55.5706 11.6026 55.5706 11.7484C55.5706 12.6547 55.6461 13.3891 55.7971 13.9516C55.9482 14.5141 56.1617 14.962 56.4377 15.2953C56.6773 15.5766 56.9377 15.7771 57.219 15.8969C57.5002 16.0115 57.8023 16.0688 58.1252 16.0688C58.9117 16.0688 59.5263 15.7849 59.969 15.2172C60.4117 14.6495 60.6331 13.876 60.6331 12.8969ZM71.7815 17.1H70.3284V10.5453L65.7581 17.1H64.4299V8.37344H65.8831V14.8344L70.4065 8.37344H71.7815V17.1ZM82.9299 17.1H81.4768V10.2094L79.3049 14.6938H78.2112L76.0549 10.2094V17.1H74.6799V8.37344H76.4534L78.8284 13.2563L81.1252 8.37344H82.9299V17.1ZM91.1956 14.4203C91.1956 14.1547 91.1487 13.9229 91.0549 13.725C90.9664 13.5219 90.818 13.3578 90.6096 13.2328C90.3909 13.1026 90.1409 13.0245 89.8596 12.9984C89.5836 12.9724 89.1851 12.9594 88.6643 12.9594H87.2893V15.9281H88.6331C89.1539 15.9281 89.5575 15.9073 89.844 15.8656C90.1305 15.8188 90.3778 15.7328 90.5862 15.6078C90.7997 15.4724 90.9534 15.3135 91.0471 15.1313C91.1461 14.9438 91.1956 14.7068 91.1956 14.4203ZM92.7112 14.3969C92.7112 14.8188 92.6252 15.2016 92.4534 15.5453C92.2867 15.8891 92.0575 16.1677 91.7659 16.3813C91.4221 16.6417 91.0549 16.8266 90.6643 16.9359C90.2737 17.0453 89.7711 17.1 89.1565 17.1H85.8206V8.37344H87.2893V11.7719H89.1956C89.8518 11.7719 90.3596 11.8057 90.719 11.8734C91.0836 11.9412 91.4456 12.1078 91.8049 12.3734C92.107 12.5974 92.3336 12.8839 92.4846 13.2328C92.6357 13.5818 92.7112 13.9698 92.7112 14.3969ZM94.1721 8.37344H95.6409V17.1H94.1721V8.37344ZM105.844 12.8891H99.4143C99.4143 13.4255 99.495 13.8943 99.6565 14.2953C99.818 14.6912 100.039 15.0167 100.321 15.2719C100.591 15.5219 100.912 15.7094 101.281 15.8344C101.656 15.9594 102.068 16.0219 102.516 16.0219C103.11 16.0219 103.706 15.9047 104.305 15.6703C104.909 15.4307 105.339 15.1964 105.594 14.9672H105.672V16.5688C105.177 16.7771 104.672 16.9516 104.156 17.0922C103.641 17.2328 103.099 17.3031 102.531 17.3031C101.084 17.3031 99.9534 16.9125 99.1409 16.1313C98.3284 15.3448 97.9221 14.2302 97.9221 12.7875C97.9221 11.3604 98.3101 10.2276 99.0862 9.38907C99.8674 8.55053 100.893 8.13126 102.164 8.13126C103.341 8.13126 104.248 8.47501 104.883 9.16251C105.524 9.85001 105.844 10.8266 105.844 12.0922V12.8891ZM104.414 11.7641C104.409 10.9932 104.214 10.3969 103.828 9.97501C103.448 9.55313 102.867 9.34219 102.086 9.34219C101.3 9.34219 100.672 9.57396 100.203 10.0375C99.7398 10.501 99.4768 11.0766 99.4143 11.7641H104.414ZM124.641 17.1H122.867L120.071 13.1156H119.36V17.1H117.906V13.1156H117.274L114.352 17.1H112.656L116.024 12.5297C115.768 12.3943 115.542 12.2016 115.344 11.9516C115.151 11.7016 114.974 11.324 114.813 10.8188C114.672 10.376 114.505 10.0688 114.313 9.89688C114.12 9.72501 113.805 9.63907 113.367 9.63907H112.953V8.37344H113.492C114.138 8.37344 114.656 8.50365 115.047 8.76407C115.438 9.02449 115.75 9.48021 115.985 10.1313C116.031 10.2667 116.089 10.4229 116.156 10.6C116.229 10.7719 116.292 10.9177 116.344 11.0375C116.516 11.4333 116.735 11.7146 117 11.8813C117.271 12.0427 117.573 12.1339 117.906 12.1547V8.37344H119.36V12.1547C119.693 12.1339 119.995 12.0401 120.266 11.8734C120.542 11.7068 120.766 11.4281 120.938 11.0375C120.995 10.9073 121.058 10.7563 121.125 10.5844C121.198 10.4125 121.255 10.2615 121.297 10.1313C121.526 9.49063 121.834 9.03751 122.219 8.77188C122.604 8.50626 123.123 8.37344 123.774 8.37344H124.313V9.63907H123.899C123.456 9.63907 123.136 9.73021 122.938 9.91251C122.745 10.0948 122.584 10.3969 122.453 10.8188C122.308 11.2823 122.133 11.6443 121.93 11.9047C121.732 12.1599 121.516 12.3526 121.281 12.4828L124.641 17.1ZM133.242 17.1H131.781V16.1703C131.651 16.2589 131.474 16.3839 131.25 16.5453C131.031 16.7016 130.818 16.8266 130.61 16.9203C130.365 17.0401 130.084 17.1391 129.766 17.2172C129.448 17.3005 129.076 17.3422 128.649 17.3422C127.862 17.3422 127.196 17.0818 126.649 16.5609C126.102 16.0401 125.828 15.376 125.828 14.5688C125.828 13.9073 125.969 13.3734 126.25 12.9672C126.537 12.5557 126.943 12.2328 127.469 11.9984C128 11.7641 128.638 11.6052 129.383 11.5219C130.128 11.4385 130.927 11.376 131.781 11.3344V11.1078C131.781 10.7745 131.722 10.4984 131.602 10.2797C131.487 10.0609 131.321 9.88907 131.102 9.76407C130.893 9.64428 130.643 9.56355 130.352 9.52188C130.06 9.48021 129.755 9.45938 129.438 9.45938C129.052 9.45938 128.623 9.51146 128.149 9.61563C127.675 9.71459 127.185 9.86042 126.68 10.0531H126.602V8.56094C126.888 8.48282 127.302 8.39688 127.844 8.30313C128.386 8.20938 128.92 8.16251 129.446 8.16251C130.06 8.16251 130.594 8.21459 131.047 8.31876C131.505 8.41771 131.901 8.58959 132.235 8.83438C132.563 9.07396 132.813 9.38386 132.985 9.76407C133.156 10.1443 133.242 10.6156 133.242 11.1781V17.1ZM131.781 14.9516V12.5219C131.334 12.5479 130.805 12.587 130.196 12.6391C129.591 12.6912 129.112 12.7667 128.758 12.8656C128.336 12.9854 127.995 13.1729 127.735 13.4281C127.474 13.6781 127.344 14.0245 127.344 14.4672C127.344 14.9672 127.495 15.3448 127.797 15.6C128.099 15.85 128.56 15.975 129.18 15.975C129.696 15.975 130.167 15.876 130.594 15.6781C131.021 15.475 131.417 15.2328 131.781 14.9516ZM143.375 17.1H141.906V13.1703H137.539V17.1H136.071V8.37344H137.539V11.9047H141.906V8.37344H143.375V17.1ZM153.953 12.6313C153.953 13.3396 153.852 13.988 153.649 14.5766C153.446 15.1599 153.159 15.6547 152.789 16.0609C152.446 16.4464 152.039 16.7458 151.571 16.9594C151.107 17.1677 150.615 17.2719 150.094 17.2719C149.641 17.2719 149.229 17.2224 148.86 17.1234C148.495 17.0245 148.123 16.8708 147.742 16.6625V20.3188H146.274V8.37344H147.742V9.28751C148.133 8.95938 148.571 8.68594 149.055 8.46719C149.545 8.24324 150.065 8.13126 150.617 8.13126C151.67 8.13126 152.487 8.52969 153.071 9.32657C153.659 10.1182 153.953 11.2198 153.953 12.6313ZM152.438 12.6703C152.438 11.6182 152.258 10.8318 151.899 10.3109C151.539 9.79011 150.987 9.52969 150.242 9.52969C149.821 9.52969 149.396 9.62084 148.969 9.80313C148.542 9.98542 148.133 10.225 147.742 10.5219V15.4672C148.159 15.6547 148.516 15.7823 148.813 15.85C149.115 15.9177 149.456 15.9516 149.836 15.9516C150.654 15.9516 151.292 15.6755 151.75 15.1234C152.209 14.5714 152.438 13.7537 152.438 12.6703ZM161.617 14.4203C161.617 14.1547 161.571 13.9229 161.477 13.725C161.388 13.5219 161.24 13.3578 161.031 13.2328C160.813 13.1026 160.563 13.0245 160.281 12.9984C160.005 12.9724 159.607 12.9594 159.086 12.9594H157.711V15.9281H159.055C159.576 15.9281 159.979 15.9073 160.266 15.8656C160.552 15.8188 160.8 15.7328 161.008 15.6078C161.222 15.4724 161.375 15.3135 161.469 15.1313C161.568 14.9438 161.617 14.7068 161.617 14.4203ZM163.133 14.3969C163.133 14.8188 163.047 15.2016 162.875 15.5453C162.709 15.8891 162.479 16.1677 162.188 16.3813C161.844 16.6417 161.477 16.8266 161.086 16.9359C160.696 17.0453 160.193 17.1 159.578 17.1H156.242V8.37344H157.711V11.7719H159.617C160.274 11.7719 160.781 11.8057 161.141 11.8734C161.505 11.9412 161.867 12.1078 162.227 12.3734C162.529 12.5974 162.755 12.8839 162.906 13.2328C163.058 13.5818 163.133 13.9698 163.133 14.3969ZM164.594 8.37344H166.063V17.1H164.594V8.37344Z" fill="#DE938C"/>
<path d="M173.871 12.8825C173.913 12.734 173.934 12.6598 173.966 12.5905C173.994 12.529 174.029 12.4705 174.069 12.416C174.114 12.3546 174.169 12.2999 174.278 12.1907L180.735 5.73388C181.425 5.04353 182.544 5.04352 183.235 5.73386C183.925 6.42423 183.925 7.54356 183.235 8.23393L176.778 14.6907C176.669 14.7999 176.614 14.8546 176.553 14.8997C176.498 14.9397 176.44 14.9741 176.378 15.0023C176.309 15.0341 176.234 15.0554 176.086 15.0978L172.985 15.9839L173.871 12.8825Z" stroke="#DE938C" stroke-linecap="round" stroke-linejoin="round"/>
</svg>
